<?xml version="1.0" encoding="UTF-8" standalone="no"?>
<svg width="67px" height="26px" viewBox="0 0 67 26" version="1.1" xmlns="http://www.w3.org/2000/svg" xmlns:xlink="http://www.w3.org/1999/xlink" xmlns:sketch="http://www.bohemiancoding.com/sketch/ns">
    <!-- Generator: Sketch 3.3 (11970) - http://www.bohemiancoding.com/sketch -->
    <title>QOR</title>
    <desc>Created with Sketch.</desc>
    <defs></defs>
    <g id="Page-1" stroke="none" stroke-width="1" fill="none" fill-rule="evenodd" sketch:type="MSPage">
        <path d="M25.4,12.968 C25.4,14.8666762 24.9573378,16.6853246 24.072,18.424 C23.1866622,20.1626754 22.0080074,21.6186608 20.536,22.792 L23.128,25.384 L21.72,25.384 L19.736,23.4 C17.7093232,24.7226733 15.4906787,25.384 13.08,25.384 L12.728,25.384 C10.5306557,25.384 8.48267616,24.8080058 6.584,23.656 C4.68532384,22.5039942 3.18667216,20.9733429 2.088,19.064 C0.98932784,17.1546571 0.44,15.1226774 0.44,12.968 C0.44,9.57598304 1.6666544,6.65867888 4.12,4.216 C6.5733456,1.77332112 9.51731616,0.552 12.952,0.552 C16.3866838,0.552 19.3199878,1.76798784 21.752,4.2 C24.1840122,6.63201216 25.4,9.5546496 25.4,12.968 L25.4,12.968 Z M12.92,24.456 C15.0746774,24.456 17.1119904,23.8693392 19.032,22.696 L13.496,17.224 L14.872,17.224 L19.8,22.088 C21.1653402,20.9999946 22.2639958,19.6453414 23.096,18.024 C23.9280042,16.4026586 24.344,14.7173421 24.344,12.968 C24.344,9.81065088 23.2293445,7.10667792 21,4.856 C18.7706555,2.60532208 16.0826824,1.48 12.936,1.48 C9.7893176,1.48 7.0960112,2.60532208 4.856,4.856 C2.6159888,7.10667792 1.496,9.8053176 1.496,12.952 C1.496,16.0986824 2.6159888,18.8026554 4.856,21.064 C7.0960112,23.3253446 9.78398432,24.456 12.92,24.456 L12.92,24.456 Z M31.912,21.672 C29.4906546,19.1759875 28.28,16.2586834 28.28,12.92 C28.28,9.58131664 29.5066544,6.69067888 31.96,4.248 C34.4133456,1.80532112 37.3573162,0.584 40.792,0.584 C44.2266838,0.584 47.1599878,1.79998784 49.592,4.232 C52.0240122,6.66401216 53.24,9.5599832 53.24,12.92 C53.24,16.2800168 52.0346787,19.2026542 49.624,21.688 C47.2133213,24.1733458 44.3333501,25.416 40.984,25.416 L40.504,25.416 C37.1973168,25.416 34.3333454,24.1680125 31.912,21.672 L31.912,21.672 Z M48.84,4.888 C46.6106555,2.63732208 43.9226824,1.512 40.776,1.512 C37.6293176,1.512 34.9360112,2.63732208 32.696,4.888 C30.4559888,7.13867792 29.336,9.8373176 29.336,12.984 C29.336,16.1306824 30.4559888,18.8346554 32.696,21.096 C34.9360112,23.3573446 37.6239843,24.488 40.76,24.488 C43.8960157,24.488 46.5839888,23.3573446 48.824,21.096 C51.0640112,18.8346554 52.184,16.1306824 52.184,12.984 C52.184,9.8373176 51.0693445,7.13867792 48.84,4.888 L48.84,4.888 Z M57.08,1 L58.456,1 C60.5253437,1 62.3439922,1.76265904 63.912,3.288 C65.4800078,4.81334096 66.264,6.60532304 66.264,8.664 C66.264,10.722677 65.464008,12.5093258 63.864,14.024 C62.263992,15.5386742 60.5466758,16.296 58.712,16.296 L58.488,16.296 L66.744,25 L65.368,25 L58.104,17.384 L58.104,25 L57.08,25 L57.08,1 Z M58.104,15.368 L58.68,15.368 C60.4080086,15.368 61.9333267,14.7066733 63.256,13.384 C64.5786733,12.0613267 65.24,10.4933424 65.24,8.68 C65.24,6.8666576 64.5573402,5.28800672 63.192,3.944 C61.8266598,2.59999328 60.2693421,1.928 58.52,1.928 L58.104,1.928 L58.104,15.368 Z" id="QOR" fill="#000000" sketch:type="MSShapeGroup"></path>
    </g>
</svg>